# xmcd
#
# Track frame offsets: 
#        150
#        13159
#        35215
#
# Disc length: 717 seconds
#
# Revision: 0
# Processed by: cddbd v1.5.2PL0 Copyright (c) Steve Scherf et al.
# Submitted via: ExactAudioCopy v0.95b4
#
DISCID=2202cb03
DTITLE=Shack - Byrds Turn To Stone - CD2
DYEAR=2003
DGENRE=
TTITLE0=Byrds Turn To Stone
TTITLE1=Streets Of Kenny (Live)
TTITLE2=Pull Together (Live)
EXTD=
EXTT0=
EXTT1=
EXTT2=
PLAYORDER=
